<?xml version="1.0" encoding="UTF-8"?>
<svg id="Camada_2" xmlns="http://www.w3.org/2000/svg" version="1.1" viewBox="0 0 397.35 397.35">
  <!-- Generator: Adobe Illustrator 29.8.1, SVG Export Plug-In . SVG Version: 2.1.1 Build 2)  -->
  <defs>
    <style>
      .st0 {
        fill: #fff;
      }
    </style>
  </defs>
  <circle class="st0" cx="128.31" cy="119.97" r="25.59"/>
  <rect class="st0" x="106.98" y="162.62" width="42.65" height="127.94" rx="1.91" ry="1.91"/>
  <path class="st0" d="M294.64,209.53v72.5c0,4.69-3.84,8.53-8.53,8.53h-25.59c-4.69,0-8.53-3.84-8.53-8.53v-59.71c0-11.77-9.55-21.32-21.32-21.32s-21.32,9.55-21.32,21.32v59.71c0,4.69-3.84,8.53-8.53,8.53h-25.59c-4.69,0-8.53-3.84-8.53-8.53v-110.89c0-4.69,3.84-8.53,8.53-8.53h25.59c4.69,0,8.53,3.84,8.53,8.53v5.46c8.53-11.05,22.65-18.25,38.38-18.25,23.54,0,46.91,17.06,46.91,51.18Z"/>
</svg>