<?xml version="1.0" encoding="UTF-8"?>
<svg id="Camada_2_xA0_Imagem" xmlns="http://www.w3.org/2000/svg" version="1.1" viewBox="0 0 4801 966">
  <!-- Generator: Adobe Illustrator 29.1.0, SVG Export Plug-In . SVG Version: 2.1.0 Build 142)  -->
  <defs>
    <style>
      .st0 {
        fill: #fff;
      }
    </style>
  </defs>
  <path class="st0" d="M1505.6,315.5l-289,36.2c-2.4.3-4.1-.9-6-2-6.6-3.8-21.7-21.4-30.2-27.8-150.7-112.4-356.5,30.6-301.1,211.2,45,146.7,234.6,180.7,332.4,63.4,8.2-9.8,22.4-38.3,32.4-41.6l287.6-35.3c2.4,2.4-10.4,58.3-12.5,66.5-73.3,283.1-375,435.5-646.7,317.9-61.4-26.6-116.2-69.7-161.6-118.3-5.5-5.9-14.8-22.6-22-24-10.3-2-34.2,4.6-46,5.9-5.8.6-11.8-.5-17.7.3-21.3,2.6-42.5,7.5-63.8,10.1-9.4,13.6-13,28.5-23.7,42.3-75.4,97.2-230,31.2-215.5-91.5,10.6-89.8,123.7-134.5,193.8-78.2,14.9,12,24.7,30,39.4,40.7l175.2-21.2c4.3,1.3,23.5,33,28.5,39.5,111.7,143.1,301.6,188.4,467.5,111.9,82.1-37.8,152.4-111.6,187.3-194.8l-3.3-4.6-114.3,13c-10.3,3.2-25.8,27.1-34.3,35.7-127.2,129.7-348,102-439.6-54.4-88.5-151.2-15.9-347.5,149.1-404.1,96.9-33.2,193.3-10.1,273.6,49.5,31.1-3.2,62.7-5.6,93.6-10.2,7.9-1.2,30.5-2.4,26.2-11.7-1.7-3.6-14.3-17.9-17.9-22.1-169.9-193.2-480.4-157.4-612.5,59.4-4.5,7.5-19.3,39.6-23.6,42.4-4,2.6-18.5,5.1-24,6-58.6,9.1-119.6,12.2-178.4,21.5-11.2,3.4-17.2,24-24.3,33.7-55.9,75.7-181.2,56.6-210.9-33-42.6-128.5,123.2-218.4,206.9-116.9,7.2,8.7,15.4,29.6,25.5,30.5l145.1-18c8.2-1.8,22.7-30.3,29-39,210.5-292.5,633.3-252.9,802.6,60.1,3.5,6.5,25.4,48.6,23.6,51.3h0ZM375.4,256c-13.4,2.3-31.1,16.9-36.6,29.4-21.7,50.3,35.7,97.1,78.9,64.9,45.5-33.9,17.3-104.4-42.3-94.4h0ZM431.3,694c-19,3.2-38.8,23.6-41.3,42.7-8.2,62.2,71.5,84.2,98.7,34.7,22.3-40.7-12.4-85.1-57.4-77.4Z"/>
  <path class="st0" d="M687.8,389.5c-8.9,52.5-11.3,105.9-1.5,158.5,3.9,20.8,12.9,40.7,15.5,61.5l-84,9.1c-8.9-4.3-15.5-66.2-19.2-67.2-46.1,1.9-92,10.5-137.8,16.1-10.1,1.2-20.2,2.7-30.1,3.9-60.5,7.5-121.2,13-181.3,22.7-7.2,3.5-12,21.5-16.5,29.5-52.2,93.8-195.3,78.3-221.5-24.5-32.4-127,120.4-209.1,209.5-109.5,7.4,8.2,9.4,21.2,23.9,18l344.2-43.6c2.8-.4,3.1-1.9,3.9-4.2,6-19.7-1.9-42.9,9.8-60.3l64.2-9.8h21s0,0,0,0ZM125.6,512c-29.5,1.2-54.4,28.7-51.4,58.3,4.9,49,68.3,65.6,96.6,25.1,24.7-35.3-2.3-85.1-45.2-83.4Z"/>
  <path class="st0" d="M2455.4,597.5c-.9,3.7-1.8,7-2.1,10.9-1.8,23-1.9,63.3,0,86.2.3,3.4.3,9.1,3.4,11.1,5.9,3.7,80,1.9,93.7,1.9,50.9,0,102.6.3,154,0,6.2,0,12-3.6,18.4.4,3.4,2.9,4.6,27.6-.5,31.5h-263.9c-2.5,0-4.7,6.3-5.1,8.9-2.8,20.9-1.6,72,0,94.2.3,4.5,1.8,8.5,2.1,12.9h278.9l3,3v29l-323.7-.2,2.8-321.8h317.9c4.9,7.2,4.9,25,0,32h-278.9,0Z"/>
  <path class="st0" d="M2195.5,565.5v322c-12.2,3.3-25.4-.8-38.1-.9-4.9-3.4,1.6-25.8-4.9-27.1-9.3,6-16.3,14.5-26.5,19.4-46,22.1-152.1,21.1-193-11.8-35.2-28.3-37.7-89.1-33.3-130.6,7.6-71.1,50.2-93,116.9-97.1,43.1-2.7,98.8-1.9,135,23.2l4.1-2.1v-92l3-3h37ZM2017.1,672.1c-36.3,2.8-69.1,8.9-75.6,50.4-3.8,23.9-4.1,87.2,5.9,108.1,17.6,36.7,87.9,32.7,123.2,31,27.6-1.3,62.7-3.6,75.9-32.1,13.2-28.6,14.1-110.9-6.1-135.9-20.4-25.2-93.1-23.9-123.2-21.5h0Z"/>
  <path class="st0" d="M3387.2,887.5h-37l-2.7-3.3c-1.4-4.4,1.9-22.2-3.3-22.6-8.1,6.7-12,12.8-21.7,18.3-38.7,21.9-151.9,17.8-190.6-4-45-25.3-37.1-97.5,10.5-116.2,36.2-14.2,143.1-13.2,179.9-.2,8.9,3.2,15.8,10.2,24.9,10.1-1.2-24.6-2-67.4-23-84-20.2-16.1-78.4-15.7-104.1-14.1-14.5.9-41.9,3.9-52.9,13-9.7,8-7.6,15.5-14.4,23.7-10.6.7-37.9,7.4-37.1-9.1,3.4-70.9,148.7-65.5,196-55.1,106,23.3,68.1,165.4,75.5,243.5h0ZM3188.9,784.1c-31.3,2.9-50.3,9.8-45.1,45.9,2.1,14.4,6.5,19.3,19.5,24.5,26.9,10.8,128.1,9.7,155.9,0,26.2-9.2,40.7-38.5,14.8-56.6s-113.9-16.7-145-13.7h0Z"/>
  <path class="st0" d="M3882.1,771.5l-2.7,3.3c.3,30.6,3.8,65.2,37.7,75.6,26.8,8.3,118.4,8.3,144.5-1.3,17.2-6.4,15.9-19.2,23.4-32.6,11.2-.2,38.5-7.2,38.1,10-1.4,52.6-74.4,59.4-112.9,61.1-119.9,5.3-181.1-16.6-170.8-148.8,6.2-80,52.5-102.2,126.6-105.3,60.4-2.5,131.3,4.1,150.9,71.3,2.9,10,13.3,66.8-.8,66.8h-233.9,0ZM3890.1,743.5c62.6.3,125.3-.3,188,0,4.6,0,3.2-22.2,2.5-26.5-3.5-23.5-20.6-38.9-42.6-45.4-23.3-6.9-98-7-120.9.9-16.4,5.6-31.4,19.3-35.5,36.5-1.4,5.9-3.9,26.2-2.2,31.2,2.4,6.9,8.2,3.3,10.7,3.3Z"/>
  <path class="st0" d="M4635,955.5c-69.6.5-139.4-.6-209,0-404.3,3-809.2,1.5-1213.8,2-683.5.9-1369.4,6.3-2053.4,0-10,0-20.2-.2-30.2,0-12.2.2-37.3,8.7-42.9-4.9,529.5-2.5,1059.2-.3,1588.8-.9,458.8-.6,918.7-3.3,1377.5-4.2,187.1-.4,375.4,4.9,562.1,2.2,7.4-.1,18.7-6.2,20.9,5.9h0Z"/>
  <path class="st0" d="M4549,669.5c8.5.3,12.6-8.9,19.3-13.7,39.7-28.2,142.3-29.7,185-7.8,30.4,15.6,37.6,46.7,39.5,78.4,3,50.3-1.4,102.8-1,153-.4,1-3.6,4-4,4h-32l-3-3v-144c0-3.4-3.5-25.2-4.5-29.5-5.9-26.3-34-37.6-58.4-39.5-45-3.5-135-5.5-141,55.1-4.7,47.4,3.9,102.1,0,150.1-.3,3.8-1.2,7.2-2.1,10.9h-35c-3.6,0-4.8-7.9-5.1-10.9-6.2-61.6,1.2-142.9,2.2-206,.5-30.7-3.6-71.1-.2-100.2.3-2.9.2-5.1,3.1-6.9h32c.5,0,5,6.2,5,7v103h0Z"/>
  <path class="st0" d="M1645.2,640.1c76.4-5.9,175.3-3.8,184.1,92.7,4.3,46.9,3.6,112.9-41.1,140.3-43.9,26.9-156.3,26.8-202.3,5.1-50.7-23.9-56.2-85.7-52.2-135.7,5.7-71.5,43.1-97.2,111.5-102.4h0ZM1590.3,842.8c20,21.5,89.9,20.3,118.4,18.8,31.1-1.7,61.9-5.5,73.9-38.1,11.6-31.8,14.4-117.5-17.1-138.8-27.1-18.4-133.1-17.4-161.9-2.2-12.1,6.4-20.7,18.4-24.5,31.5-8.4,28.6-9.9,106.2,11.3,128.9h0Z"/>
  <path class="st0" d="M4415,717.5c-3.8-16.9,1-30.4-16.6-40.4-22.2-12.6-103.2-12.4-130.2-9.4-20.3,2.2-46.1,12.3-52.6,33.3-6.8,21.8-7.7,105.1,1.7,125.2,3.3,7.2,10.9,14.3,17.7,18.3,27.9,16.4,132.7,16.7,161.1,1,19-10.5,15.1-25.2,20.8-43.2,5.9-1.2,35.6-2.2,37.8,1.4.5,24.6-6.9,50-28.3,64.1-41.2,27.1-183.6,27.1-223.4-3.3-38.5-29.5-37-111.7-29.4-155.5,10.5-61.3,62.1-73,116.4-75.6,42.1-2,137.4-3.2,157.5,42.7,4.5,10.2,11.4,32.2,4.6,41.4h-37Z"/>
  <path class="st0" d="M3592.2,883.5c-7-6.3-2.8-13.4-2.9-20.9-.7-89.1,1.1-178.2-1-267.2-2.6-3.7-33.3-1.5-40.2-1.8-28.6-1.3-57.1-2.8-86-2.2-7.9.2-33.2,6.9-36.6-3.2-2.1-6.2-2.2-30.1,8.6-28.8h350.1c8.5,1.7,8.7,28,4.5,31.6-7.9,4.7-14.9.5-22.4.4-41.3-.5-83.4.1-124.1,0-5.1,0-9.6,1.3-13,5.2v284l-3,3h-34Z"/>
  <path class="st0" d="M2842.4,645.5l2.7,3.3,3.3,24.7c9.4-5.6,14.5-13.9,24.4-19.6,33.6-19.5,117.7-21,150.1,1.1,18.2,12.4,25.9,36.2,26.6,57.6.6,19.3-17.6,12.7-31.6,11.6-8.1-3.5,2.6-30.3-19-43.1-25.8-15.3-104.5-12.2-130.1,4.8-6.2,4.1-21.3,21.7-21.3,28.7v170c0,7.8-35.7,1-42,3v-239l3-3h34,0Z"/>
  <path class="st0" d="M2319.5,725.5c-8.3,4.2-15.4.6-23,.4-9.5-.3-19.7,5.9-19.1-11.3.3-7.9,1.8-22.8,5.1-29.1h34l3,3v37Z"/>
  <path class="st0" d="M2319.5,809.5v38c-8,3.4-14-.1-21-.2-6.3,0-12.8,4-18.5-.3-2.4-2.4-2.8-9.1-2.6-12.5.2-7.3,1.9-21.4,5.2-27h32c.7,0,3,2.7,5,2h0Z"/>
</svg>