<?xml version="1.0" encoding="UTF-8"?>
<svg id="Camada_0_Imagem" data-name="Camada 0 Imagem" xmlns="http://www.w3.org/2000/svg" viewBox="0 0 577.42 89.52">
  <defs>
    <style>
      .cls-1 {
        fill: #fcfcfc;
      }

      .cls-2 {
        fill: none;
      }

      .cls-3 {
        fill: #b81719;
      }

      .cls-4 {
        fill: #cd221f;
      }
    </style>
  </defs>
  <path class="cls-3" d="M135.39,2.87c14.71-1.06,29.58-.25,44.19,1.14,3.44,1.13,8.04,11.5,12.41,14.49,5.96,4.08,15.95,2.97,17.41,12.49.66,4.27.55,15.39.12,19.88-.96,9.95-5.66,13.91-14.97,15.91-19.59,4.21-55.14,3.46-75.42,1.43-14.42-1.44-24.86-2.28-26.45-19.39-.45-4.9.74-19.82,3.13-23.71,3.7-6.01,8.99-3.21,13.78-6.16,5.48-3.38,7.61-11.29,13.28-14.62,4.05-.79,8.42-1.16,12.51-1.46h0ZM200.22,61.98c.68-.57,4.98-8.89,5.19-10.24.76-4.85.56-19.05-1.43-23.31-2.78-5.94-4.95-3.1-9.78-4.18-6.93-1.55-11.47-14.41-16.64-16.24-3.06-1.08-12.9-2.2-16.52-2.44-8.74-.56-28.92.08-36.9,3-6.07,2.22-8.23,11.23-11.96,13.95-3.92,2.85-13.64,1.21-15.31,8.62-1.52,6.74-.98,24.25,3.76,29.64,5.95,6.76,31.1,4.32,40.49,4.41,12.65.13,26.04.75,38.93.08,4.03-.21,17.73-1.26,20.16-3.29h0Z"/>
  <path class="cls-1" d="M209.46,60.26c1.36,11.61-9.43,11.86-16.67,15.71-20.79,11.06-32.32,16.57-57.43,11.86-11.44-2.15-20.59-8.54-30.7-13.18-4.79-2.2-11.78-5.92-12.03-11.9-.08-1.98.2-1.59,2.01-1.5,2.04,10.44,11.25,8.12,17.94,10.48,2.47.87,6.73,5.31,9.99,6.96,15.41,7.79,38.82,7.19,54.63.64,4.96-2.05,9.44-7.35,11.04-7.9,5.06-1.75,11.24.09,15.89-4.55,2.04-2.04,2.29-6.81,5.33-6.62h0Z"/>
  <path class="cls-1" d="M183.5,23.46h-65.88c2.17-4.15,4.78-10.16,9.51-11.9,5.57-2.05,30.7-1.5,37.96-1.07,2.05.12,10.34.91,11.43,1.54.95.55,7.97,10.32,6.98,11.43h0Z"/>
  <path class="cls-1" d="M176.24,48.62c4.81,3.95,1.67,7.05.15,11.49l-49.12.98c-2.18-2.18-5.91-7.61-3.64-10.25,4.69-5.47,7.21-2.28,11.52-2.47,11.93-.53,24.08-1.35,35.89-1.12,1.75.03,3.8.21,5.21,1.37h-.01Z"/>
  <path class="cls-1" d="M124.61,42.35c-8.71-2.58-24.21,1.54-21.95-11.92.45-.51,11.37,3.74,12.96,4.48,1.89.88,11.34,5.13,8.99,7.44Z"/>
  <path class="cls-1" d="M197.27,39.17c-1.19.88-18.97,2.84-19.75,2.19-.43-2.05,1.02-2.3,2.3-3.17,4.99-3.38,12.83-4.63,18.17-7.74,2.76.73.11,8.1-.72,8.72Z"/>
  <path class="cls-1" d="M117.61,59.26l-12.99-2.46-2.97-11.45c7.36,2.36,15.26,5.1,15.96,13.91Z"/>
  <path class="cls-1" d="M197.34,57.14l-12.82,2.13c.27-8.97,7.07-11.38,14.48-13.91l-1.65,11.78h0Z"/>
  <path class="cls-1" d="M128.6,35.4l-8.49-6.95,1.03-1.99c3.17-1.29,8.34,7.9,7.46,8.95h0Z"/>
  <path class="cls-1" d="M173.25,35.4l8.49-6.95-1.03-1.99c-3.17-1.29-8.34,7.9-7.46,8.95h0Z"/>
  <polygon class="cls-1" points="302.19 79.04 266.83 38.44 299.89 .53 276.06 .53 254.73 25.95 233 .53 208.08 .53 241.33 39.06 206.32 79.04 231.51 79.04 254.02 51.76 276.87 79.04 302.19 79.04"/>
  <path class="cls-1" d="M336.62,79.04V17.39h-31.85l5.29-16.86h82.59l-3.76,16.33h-30.33v62.18h-21.94Z"/>
  <path class="cls-1" d="M421.95,61.15c-10.24-4.94-7.59-15.39-7.59-15.39h59.65v-14.13h-59.29s-2.47-11.24,6.71-14.24h56.18V0h-60.41c-10.34,1.75-16.93,8.76-20.54,17.41-1.03,2.46-1.51,5.11-1.5,7.78l.1,26.1c.01,3.04.49,6.08,1.56,8.93,4.15,11.13,11.37,17.31,21.45,18.3h59.47l.18-17.36h-55.97,0Z"/>
  <path class="cls-2" d="M60.32,48.36c-2.93-1.61-7.24-2.41-12.93-2.41h-25.64l.05,16.67h25.59c5.69,0,10.27.59,13.2-.94s4.13-2.6,4.13-5.97-1.47-5.74-4.4-7.35Z"/>
  <path class="cls-2" d="M60.12,23.41c0-3.07-1.21-5.85-4.27-6.9-2.22-.76-7.06-.95-12.39-.95h-21.8l.05,16.35h21.89c5.33,0,9.41.04,12.25-1.5,2.84-1.53,4.27-3.87,4.27-7.01h0Z"/>
  <path class="cls-1" d="M83.3,45.09c-2.57-3.14-4.81-4.86-9.41-6.47-.83-.29-1.76-.53-2.72-.75,3.21-1.12,5.85-2.73,7.78-5.13.21-.26.39-.54.57-.82,1.98-3.01,2.67-7.21,2.67-10.97,0-1.78-.24-3.6-.72-5.38-1.17-4.37-3.79-8.52-8.06-11.18-6-3.74-13.29-3.87-27.11-3.86H0v15.03h43.47c5.33,0,10.17.19,12.39.95,3.06,1.05,4.27,3.83,4.27,6.9s-1.42,5.48-4.27,7.01c-2.84,1.53-6.93,1.5-12.25,1.5H0v47.12h49.02c12.46,0,22.11-1,28.52-4.77s9.4-9.92,9.4-16.65c0-4.56-1.06-9.39-3.63-12.53,0,0-.01,0-.01,0ZM60.59,61.68c-2.93,1.53-7.51.94-13.2.94h-25.59l-.05-16.67h25.64c5.69,0,10,.8,12.93,2.41s4.4,4.06,4.4,7.35-1.2,4.44-4.13,5.97Z"/>
  <path class="cls-4" d="M553.06,52.86c.07-.02.13-.04.2-.06,6.46-2.24,12.63-4.47,16.15-8.69,1.72-2.06,3.01-4.33,3.89-6.78.92-2.56,1.38-5.33,1.38-8.31.38-4.42-.01-8.44-1.03-11.98-2.98-10.29-11.32-16.5-21.64-16.5h-63.83v16.5h53.65c3.44.09,6.52.36,8.59,1.06,4.03,1.36,4.06,5.15,4.06,9.48s-.59,5.35-4.11,7.78c-2.09,1.45-6.37,1.87-10.98,1.97h-51.22v41.71h19.72v-25.65l19.57.19c.36,0,.71,0,1.08-.02l23.06,25.48,25.82-.53-24.35-25.65h-.01Z"/>
</svg>