<?xml version="1.0" encoding="UTF-8"?>
<svg id="Camada_2" data-name="Camada 2" xmlns="http://www.w3.org/2000/svg" viewBox="0 0 1409.4 382.04">
  <defs>
    <style>
      .cls-1 {
        fill: #1a1a1a;
      }
    </style>
  </defs>
  <g id="Layer_1" data-name="Layer 1">
    <g>
      <g>
        <path class="cls-1" d="M115.68,245.21c1.43.69,3.03,1.09,4.73,1.09,1.31,0,2.55-.24,3.72-.66,15.55,13.74,34.22,23.17,54.62,27.46.41.08.81.13,1.21.13,2.7,0,5.13-1.89,5.71-4.64.66-3.15-1.36-6.25-4.51-6.91-18.65-3.92-35.7-12.6-49.85-25.27.03-.35.05-.7.05-1.06,0-1.6-.35-3.11-.97-4.48l11.86-11.56c12.39,11.94,28.26,20.34,46.03,23.45v-11.12c-33.9-6.8-59.45-35.76-62.14-70.17-.16-1.99-.25-4-.25-6.02v-.05c0-2.68-2.13-4.88-4.81-4.88H19.23c-1.83-2.95-5.1-4.93-8.83-4.93-5.74,0-10.4,4.66-10.4,10.4s4.66,10.4,10.4,10.4c3.73,0,7-1.97,8.83-4.93h95.94c1.38,20.15,9.63,38.71,22.53,53.11l-11.68,11.39c-1.64-.98-3.56-1.56-5.61-1.56-6.05,0-10.95,4.9-10.95,10.95,0,1.95.52,3.78,1.41,5.37l-14.03,13.68c-18.08-19.48-30.36-43.18-35.75-69.02,1.46-1.3,2.39-3.2,2.39-5.31,0-3.93-3.19-7.12-7.12-7.12s-7.12,3.19-7.12,7.12c0,3.36,2.34,6.17,5.47,6.92,5.67,26.96,18.52,51.68,37.42,72l-18.94,18.46c-.81-.32-1.68-.5-2.6-.5-3.93,0-7.12,3.19-7.12,7.12s3.19,7.12,7.12,7.12,7.12-3.19,7.12-7.12c0-.57-.07-1.12-.2-1.65l38.16-37.2ZM115.04,151.42c0-.11,0-.22,0-.32,0-.07,0-.13.01-.2,0,.18-.01.35-.02.53Z"/>
        <path class="cls-1" d="M183.36,295.56c-2.45,0-4.6,1.23-5.88,3.11-23-4.18-44.74-13.88-63.29-28.33-1.43-1.12-3.49-.86-4.61.57-1.11,1.43-.86,3.49.57,4.61,19.5,15.2,42.37,25.36,66.57,29.69,1.02,2.68,3.61,4.58,6.64,4.58,3.93,0,7.12-3.19,7.12-7.12s-3.19-7.12-7.12-7.12Z"/>
      </g>
      <g>
        <path class="cls-1" d="M307.79,257.14c-20.8,21.31-48,35.86-77.08,41.36-1.29-1.78-3.39-2.94-5.76-2.94-3.93,0-7.12,3.19-7.12,7.12s3.19,7.12,7.12,7.12c3.11,0,5.75-2,6.72-4.78,30.5-5.72,59.02-20.95,80.82-43.28,1.27-1.3,1.24-3.38-.06-4.64-1.3-1.27-3.38-1.24-4.64.06Z"/>
        <path class="cls-1" d="M351.66,171.52c-1.8-.24-3.45,1.04-3.68,2.83-2.93,22.62-11.26,44.36-24.15,63.21-.12,0-.24-.02-.36-.02-3.93,0-7.12,3.19-7.12,7.12s3.19,7.12,7.12,7.12,7.12-3.19,7.12-7.12c0-1.38-.4-2.67-1.08-3.76,13.33-19.62,21.94-42.2,24.99-65.7.23-1.8-1.03-3.45-2.83-3.68Z"/>
        <path class="cls-1" d="M269.29,259.44c6.05,0,10.95-4.9,10.95-10.95s-4.9-10.95-10.95-10.95-10.95,4.9-10.95,10.95c0,.23.02.46.03.69-15,8.8-31.78,13.81-49.29,14.67v-19.92c22.04-1.34,42.04-10.74,56.91-25.43l25.49,24.14c-.19.64-.3,1.32-.3,2.02,0,3.93,3.19,7.12,7.12,7.12s7.12-3.19,7.12-7.12-3.19-7.12-7.12-7.12c-.79,0-1.54.13-2.25.37l-25.56-24.21c10.82-12.4,18.24-27.89,20.8-45.12h-11.07c-5.99,35.31-35.45,61.89-71.13,64.37v-30.18c2.65-1.89,4.38-4.97,4.38-8.47,0-5.74-4.66-10.4-10.4-10.4s-10.4,4.66-10.4,10.4c0,3.96,2.22,7.4,5.47,9.16v66.72c0,3,2.41,5.49,5.42,5.49h.05c1.83,0,3.65-.05,5.47-.13,20-.89,39.15-6.66,56.18-16.88,1.25.49,2.6.77,4.02.77Z"/>
        <path class="cls-1" d="M292.69,227.45c1.04.76,2.24,1.12,3.43,1.12,1.8,0,3.58-.83,4.72-2.4,12.45-17.09,20.01-36.79,22.25-57.59h-11.74c-2.19,18.31-8.96,35.64-19.94,50.72-1.9,2.61-1.32,6.26,1.28,8.15Z"/>
      </g>
      <g>
        <path class="cls-1" d="M351.98,121.61c-4.19-18.53-11.75-35.9-22.53-51.73-1.02-1.5-3.06-1.89-4.56-.87-1.5,1.02-1.89,3.06-.86,4.56,10.44,15.32,17.71,32.16,21.7,50.12-1.23,1.28-1.99,3.01-1.99,4.93,0,3.93,3.19,7.12,7.12,7.12s7.12-3.19,7.12-7.12c0-3.54-2.59-6.47-5.98-7.02Z"/>
        <path class="cls-1" d="M350.84,145.59c-3.73,0-7,1.97-8.83,4.93h-18.28c-.74-18.3-5.61-36.07-14.26-52.1.9-1.59,1.42-3.42,1.42-5.37,0-6.05-4.9-10.95-10.95-10.95s-10.95,4.9-10.95,10.95,4.51,10.52,10.2,10.91c7.73,14.32,12.11,30.2,12.85,46.56h-19.91c-1.16-21.06-9.7-40.19-23.08-54.83l54.65-53.28c.62.18,1.28.28,1.96.28,3.93,0,7.12-3.19,7.12-7.12s-3.19-7.12-7.12-7.12-7.12,3.19-7.12,7.12c0,.81.14,1.58.39,2.31l-54.5,53.13c-15.89-15.01-37.3-24.25-60.83-24.25s-45.78,9.46-61.81,25.02l-11.73-11.11c.82-1.53,1.29-3.29,1.29-5.15,0-6.05-4.9-10.95-10.95-10.95s-10.95,4.9-10.95,10.95,4.9,10.95,10.95,10.95c1.79,0,3.47-.44,4.97-1.2l11.89,11.27c-10.88,12.24-18.43,27.57-21.18,44.67h11.11c6.73-36.57,38.62-63.49,76.4-63.49,41.2,0,75,32.23,77.55,72.8.1,1.63.17,3.27.17,4.93,0,2.01-.09,4.03-.24,6.02h60.92c1.83,2.95,5.1,4.93,8.83,4.93,5.74,0,10.4-4.66,10.4-10.4s-4.66-10.4-10.4-10.4Z"/>
        <path class="cls-1" d="M111.71,97.62c1.72-2.73.9-6.33-1.82-8.05-2.72-1.72-6.33-.9-8.05,1.82-9.54,15.13-15.51,32.13-17.6,49.82h11.76c2.03-15.47,7.35-30.33,15.71-43.59Z"/>
      </g>
      <g>
        <path class="cls-1" d="M187.81,7.36c-.23-1.8-1.88-3.07-3.67-2.84-26.1,3.33-50.78,13.4-71.81,29.19-1.01-.56-2.18-.87-3.41-.87-3.93,0-7.12,3.19-7.12,7.12s3.19,7.12,7.12,7.12,7.12-3.19,7.12-7.12c0-.26-.02-.52-.04-.78,20.18-15.23,43.9-24.94,68.98-28.14,1.8-.23,3.07-1.87,2.84-3.67Z"/>
        <path class="cls-1" d="M305.3,42.26c-19.96-17.95-44.09-30.18-70.15-35.68-.74-3.14-3.55-5.49-6.92-5.49-3.93,0-7.12,3.19-7.12,7.12s3.19,7.12,7.12,7.12c2.11,0,3.99-.92,5.3-2.38,25.03,5.23,48.21,16.96,67.38,34.19.63.56,1.41.84,2.19.84.9,0,1.79-.37,2.44-1.09,1.21-1.35,1.1-3.43-.25-4.64Z"/>
        <path class="cls-1" d="M269.29,50.35c-1.82,0-3.54.45-5.05,1.24-16.79-9.83-35.61-15.37-55.16-16.25v-14.93c3.27-1.89,5.47-5.42,5.47-9.47,0-6.05-4.9-10.95-10.95-10.95s-10.95,4.9-10.95,10.95c0,4.05,2.2,7.58,5.47,9.47v14.93c-23.51,1.05-45.87,8.82-64.98,22.66-2.61,1.89-3.19,5.54-1.3,8.15,1.14,1.58,2.92,2.41,4.73,2.41,1.19,0,2.38-.36,3.42-1.11,18.58-13.46,40.58-20.58,63.61-20.58,19.42,0,38.19,5.09,54.75,14.8.2,5.87,5.01,10.57,10.93,10.57s10.95-4.9,10.95-10.95-4.9-10.95-10.95-10.95Z"/>
        <path class="cls-1" d="M84.84,58.02c-3.93,0-7.12,3.19-7.12,7.12,0,1.27.34,2.46.92,3.49-15.1,21.65-24.11,46.41-26.51,72.59h6.6c2.39-24.89,11.03-48.42,25.42-69,.23.02.45.03.69.03,3.93,0,7.12-3.19,7.12-7.12s-3.19-7.12-7.12-7.12Z"/>
      </g>
    </g>
    <g>
      <path class="cls-1" d="M153.25,333.87h103.99c3.02,0,5.47-2.45,5.47-5.47s-2.45-5.47-5.47-5.47h-103.99c-3.02,0-5.47,2.45-5.47,5.47s2.45,5.47,5.47,5.47Z"/>
      <path class="cls-1" d="M257.25,341.54h-103.99c-3.02,0-5.47,2.45-5.47,5.47s2.45,5.47,5.47,5.47h103.99c3.02,0,5.47-2.45,5.47-5.47s-2.45-5.47-5.47-5.47Z"/>
      <path class="cls-1" d="M230.97,359.05h-51.45c-3.02,0-5.47,2.45-5.47,5.47s2.45,5.47,5.47,5.47h5.86c3.75,7.15,11.23,12.04,19.87,12.04s16.12-4.89,19.87-12.04h5.86c3.02,0,5.47-2.45,5.47-5.47s-2.45-5.47-5.47-5.47Z"/>
    </g>
    <g>
      <path class="cls-1" d="M413.47,229.92h-26.11l44.82-66.8,12.84,18.06-31.55,48.74ZM487.23,229.92l-96.17-139.47h28.29l30.9,48.08,30.68-48.08h28.29l-45.47,66.14,49.17,73.32h-25.67Z"/>
      <path class="cls-1" d="M560.99,229.92v-42.21l-52.65-97.26h25.24l52.44,100.3v39.16h-25.02ZM588.84,179.88l-10.88-21.1,38.08-68.32h25.02l-52.22,89.42Z"/>
      <path class="cls-1" d="M643.23,229.92v-22.85l94.43-116.62h8.92v22.85l-81.16,97.69h83.98v18.93h-106.18ZM712.2,110.48h-68.97v-20.02h84.86l-15.88,20.02Z"/>
      <path class="cls-1" d="M814.68,160.3c0-36.99,11.97-69.41,60.05-71.15v19.8c-29.37,1.96-35.68,24.15-35.68,51.35s6.31,49.61,35.68,51.35v20.02c-48.3-1.96-60.05-34.38-60.05-71.37ZM917.16,143.76c-1.31-18.71-10.66-33.72-35.03-34.81v-19.8c43.3,1.09,59.62,26.33,59.62,54.61h-24.59ZM882.13,231.67v-20.02c24.8-1.09,33.72-15.45,35.03-35.25h24.59c0,29.81-16.1,54.18-59.62,55.26Z"/>
      <path class="cls-1" d="M947.19,160.3c0-36.99,12.4-69.62,62.23-71.15v19.8c-30.9,1.96-37.86,23.93-37.86,51.35s6.96,49.61,37.86,51.35v20.02c-50.04-1.74-62.23-34.38-62.23-71.37ZM1016.82,231.67v-20.02c32.42-1.31,38.95-23.5,38.95-51.13s-6.53-50.26-38.95-51.57v-19.8c51.13,1.31,63.1,33.94,63.1,71.37s-11.97,69.62-63.1,71.15Z"/>
      <path class="cls-1" d="M1098.84,230.14V90.68h23.72v139.47h-23.72ZM1149.76,230.14h-19.8v-19.15h15.45c30.68,0,46.78-14.14,46.78-51.78-.22-37.86-15.01-48.95-45.47-48.95h-16.75v-19.58h21.98c41.77,0,63.53,24.15,63.53,68.75s-23.5,70.71-65.71,70.71Z"/>
      <path class="cls-1" d="M1257.68,168.57v61.36h-23.72V90.68h23.72v58.53h66.36v19.36h-66.36ZM1265.07,110.48v-19.8h65.71v19.8h-65.71ZM1265.07,229.92v-19.8h65.71v19.8h-65.71Z"/>
    </g>
    <g>
      <path class="cls-1" d="M308.74,324.33c0-8.86,4.43-15.34,12.84-15.34,6.13,0,10.39,3.18,11.3,9.09h-2.73c-.97-4.66-3.98-6.7-8.58-6.7-7.1,0-10,5.91-10,12.95s2.95,12.95,9.94,12.95c5.11,0,8.46-3.41,9.09-8.24h2.61c-.74,6.36-4.94,10.68-11.7,10.68-8.46,0-12.78-6.53-12.78-15.39Z"/>
      <path class="cls-1" d="M339.81,324.33c0-8.86,4.94-15.34,13.18-15.34s13.18,6.47,13.18,15.34-4.88,15.39-13.18,15.39-13.18-6.53-13.18-15.39ZM363.32,324.33c0-7.16-3.58-13.01-10.34-13.01s-10.34,5.85-10.34,13.01,3.58,13.01,10.34,13.01,10.34-5.85,10.34-13.01Z"/>
      <path class="cls-1" d="M373.26,324.33c0-8.86,4.94-15.34,13.18-15.34s13.18,6.47,13.18,15.34-4.88,15.39-13.18,15.39-13.18-6.53-13.18-15.39ZM396.78,324.33c0-7.16-3.58-13.01-10.34-13.01s-10.34,5.85-10.34,13.01,3.58,13.01,10.34,13.01,10.34-5.85,10.34-13.01Z"/>
      <path class="cls-1" d="M410.92,315.41h.11c1.02-2.04,2.39-3.64,4.15-4.66,1.76-1.02,3.24-1.31,5.4-1.31v2.78c-1.65-.06-2.95.17-4.15.68-3.12,1.42-5.51,4.77-5.51,9.09v16.98h-2.78v-29.36h2.78v5.79Z"/>
      <path class="cls-1" d="M425.45,324.39c0-9.77,5.51-15.39,12.33-15.39,4.71,0,8.07,2.21,9.94,5.96h.11v-16.59h2.78v40.61h-2.78v-4.88h-.11c-2.16,3.64-5.28,5.62-9.88,5.62-7.84,0-12.38-6.59-12.38-15.34ZM448.12,324.45c0-7.44-3.58-13.06-10.11-13.06-6.02,0-9.71,5.23-9.71,13.06,0,7.04,3.07,12.95,9.66,12.95s10.17-5.17,10.17-12.95Z"/>
      <path class="cls-1" d="M461.97,324.62c.06,7.04,3.24,12.67,10.45,12.67,5.28,0,7.72-3.07,8.92-7.04h2.67c-1.19,5.45-5.05,9.49-11.59,9.49-8.63,0-13.29-6.36-13.29-15.39s5.06-15.34,13.06-15.34c3.18,0,5.79,1.02,7.72,2.84,3.24,3.01,4.32,7.21,4.26,12.78h-22.21ZM472.2,311.38c-6.36,0-9.6,4.77-10.17,10.96h19.31c-.17-5.79-2.67-10.96-9.14-10.96Z"/>
      <path class="cls-1" d="M495.48,314.56h.11c1.93-3.12,5.23-5.51,10.22-5.51s8.97,3.12,8.97,8.97v20.96h-2.78v-20.67c0-4.83-2.61-6.87-6.7-6.87-5.23,0-9.83,3.69-9.83,8.58v18.97h-2.78v-29.36h2.78v4.94Z"/>
      <path class="cls-1" d="M543.13,335.46v-1.02h-.17c-1.65,2.33-4.6,5.28-10.62,5.28-5.4,0-9.37-2.78-9.37-8.18,0-6.99,5.45-8.41,11.59-9.03,6.93-.68,8.52-1.02,8.52-3.75v-1.02c0-4.43-2.61-6.36-7.38-6.36-5.51,0-8.46,2.27-8.86,6.59h-2.84c.57-5.68,4.37-8.97,11.7-8.97,6.53,0,10.17,2.9,10.17,8.92v17.27c0,1.59.85,2.04,1.87,2.04.4,0,.85-.11,1.36-.28h.17v2.04c-.45.23-1.14.45-2.27.45-2.27,0-3.86-1.25-3.86-3.98ZM543.07,328.54v-5.45c-2.04,1.02-5.17,1.42-8.18,1.76-5.17.57-9.09,1.25-9.09,6.82,0,4.15,3.07,5.74,6.82,5.74,6.65,0,10.45-4.43,10.45-8.86Z"/>
      <path class="cls-1" d="M556.7,309.62h2.78v4.6h.11c1.93-3.01,4.54-5.17,9.09-5.17,3.64,0,6.82,1.82,7.95,5.4h.17c1.93-3.35,5.17-5.4,9.71-5.4,4.88,0,8.86,3.12,8.86,8.97v20.96h-2.78v-20.67c0-4.83-2.67-6.87-6.7-6.87-4.6,0-8.46,2.95-8.46,8.58v18.97h-2.78v-20.67c0-4.83-2.78-6.87-6.48-6.87-4.6,0-8.69,3.69-8.69,8.58v18.97h-2.78v-29.36Z"/>
      <path class="cls-1" d="M603.67,324.33c0-8.86,4.94-15.34,13.18-15.34s13.18,6.47,13.18,15.34-4.88,15.39-13.18,15.39-13.18-6.53-13.18-15.39ZM627.19,324.33c0-7.16-3.58-13.01-10.34-13.01s-10.34,5.85-10.34,13.01,3.58,13.01,10.34,13.01,10.34-5.85,10.34-13.01Z"/>
      <path class="cls-1" d="M636.67,330.13h2.84c.4,4.83,3.86,7.21,8.75,7.21s7.89-2.44,7.89-6.3c0-3.18-1.53-4.43-8.01-5.96-6.02-1.42-10.51-3.01-10.51-8.24,0-4.88,4.43-7.84,10-7.84,6.76,0,9.77,3.58,10.45,8.35h-2.73c-.4-3.75-3.29-5.91-7.72-5.91-4.77,0-7.21,2.27-7.21,5.34,0,3.41,2.73,4.37,8.75,5.79,5.91,1.36,9.77,2.95,9.77,8.52,0,4.77-3.81,8.63-10.68,8.63-7.67,0-11.3-4.54-11.59-9.6Z"/>
      <path class="cls-1" d="M680.97,298.38h2.78v4.54h-2.78v-4.54ZM680.97,309.62h2.78v29.36h-2.78v-29.36Z"/>
      <path class="cls-1" d="M692.44,324.39c0-9.77,5.51-15.39,12.33-15.39,4.71,0,8.07,2.21,9.94,5.96h.11v-16.59h2.78v40.61h-2.78v-4.88h-.11c-2.16,3.64-5.28,5.62-9.88,5.62-7.84,0-12.38-6.59-12.38-15.34ZM715.1,324.45c0-7.44-3.58-13.06-10.11-13.06-6.02,0-9.71,5.23-9.71,13.06,0,7.04,3.07,12.95,9.66,12.95s10.17-5.17,10.17-12.95Z"/>
      <path class="cls-1" d="M728.96,324.62c.06,7.04,3.24,12.67,10.45,12.67,5.28,0,7.72-3.07,8.92-7.04h2.67c-1.19,5.45-5.05,9.49-11.59,9.49-8.63,0-13.29-6.36-13.29-15.39s5.06-15.34,13.06-15.34c3.18,0,5.79,1.02,7.72,2.84,3.24,3.01,4.32,7.21,4.26,12.78h-22.21ZM739.18,311.38c-6.36,0-9.6,4.77-10.17,10.96h19.31c-.17-5.79-2.67-10.96-9.14-10.96Z"/>
      <path class="cls-1" d="M759.85,298.38h2.78v4.54h-2.78v-4.54ZM759.85,309.62h2.78v29.36h-2.78v-29.36Z"/>
      <path class="cls-1" d="M791.37,335.46v-1.02h-.17c-1.65,2.33-4.6,5.28-10.62,5.28-5.4,0-9.37-2.78-9.37-8.18,0-6.99,5.45-8.41,11.59-9.03,6.93-.68,8.52-1.02,8.52-3.75v-1.02c0-4.43-2.61-6.36-7.38-6.36-5.51,0-8.46,2.27-8.86,6.59h-2.84c.57-5.68,4.37-8.97,11.7-8.97,6.53,0,10.17,2.9,10.17,8.92v17.27c0,1.59.85,2.04,1.87,2.04.4,0,.85-.11,1.36-.28h.17v2.04c-.45.23-1.14.45-2.27.45-2.27,0-3.86-1.25-3.86-3.98ZM791.32,328.54v-5.45c-2.04,1.02-5.17,1.42-8.18,1.76-5.17.57-9.09,1.25-9.09,6.82,0,4.15,3.07,5.74,6.82,5.74,6.65,0,10.45-4.43,10.45-8.86Z"/>
      <path class="cls-1" d="M802.79,330.13h2.84c.4,4.83,3.86,7.21,8.75,7.21s7.89-2.44,7.89-6.3c0-3.18-1.53-4.43-8.01-5.96-6.02-1.42-10.51-3.01-10.51-8.24,0-4.88,4.43-7.84,10-7.84,6.76,0,9.77,3.58,10.45,8.35h-2.73c-.4-3.75-3.29-5.91-7.72-5.91-4.77,0-7.21,2.27-7.21,5.34,0,3.41,2.73,4.37,8.75,5.79,5.91,1.36,9.77,2.95,9.77,8.52,0,4.77-3.81,8.63-10.68,8.63-7.67,0-11.3-4.54-11.59-9.6Z"/>
      <path class="cls-1" d="M832.95,342.68c.97-.34,1.53-1.08,1.53-3.35v-.34h-1.48v-4.49h3.47v4.66c0,3.52-1.31,4.77-3.52,5.17v-1.65Z"/>
      <path class="cls-1" d="M857.88,324.33c0-8.86,4.43-15.34,12.84-15.34,6.13,0,10.39,3.18,11.3,9.09h-2.73c-.97-4.66-3.98-6.7-8.58-6.7-7.1,0-10,5.91-10,12.95s2.95,12.95,9.94,12.95c5.11,0,8.46-3.41,9.09-8.24h2.61c-.74,6.36-4.94,10.68-11.7,10.68-8.46,0-12.78-6.53-12.78-15.39Z"/>
      <path class="cls-1" d="M888.94,324.33c0-8.86,4.94-15.34,13.18-15.34s13.18,6.47,13.18,15.34-4.88,15.39-13.18,15.39-13.18-6.53-13.18-15.39ZM912.46,324.33c0-7.16-3.58-13.01-10.34-13.01s-10.34,5.85-10.34,13.01,3.58,13.01,10.34,13.01,10.34-5.85,10.34-13.01Z"/>
      <path class="cls-1" d="M922.39,324.39c0-9.77,5.51-15.39,12.33-15.39,4.71,0,8.07,2.21,9.94,5.96h.11v-16.59h2.78v40.61h-2.78v-4.88h-.11c-2.16,3.64-5.28,5.62-9.88,5.62-7.84,0-12.38-6.59-12.38-15.34ZM945.06,324.45c0-7.44-3.58-13.06-10.11-13.06-6.02,0-9.71,5.23-9.71,13.06,0,7.04,3.07,12.95,9.66,12.95s10.17-5.17,10.17-12.95Z"/>
      <path class="cls-1" d="M957.66,298.38h2.78v4.54h-2.78v-4.54ZM957.66,309.62h2.78v29.36h-2.78v-29.36Z"/>
      <path class="cls-1" d="M968.4,309.62h4.37v-5.57c0-3.92,2.1-5.91,6.3-5.91h1.76v2.44h-1.59c-2.9,0-3.69,1.36-3.69,3.52v5.51h5.45v2.33h-5.45v27.04h-2.78v-27.04h-4.37v-2.33ZM984.7,298.38h2.78v4.54h-2.78v-4.54ZM984.7,309.62h2.78v29.36h-2.78v-29.36Z"/>
      <path class="cls-1" d="M996.17,324.33c0-8.86,4.43-15.34,12.84-15.34,6.13,0,10.39,3.18,11.3,9.09h-2.73c-.97-4.66-3.98-6.7-8.58-6.7-7.1,0-10,5.91-10,12.95s2.95,12.95,9.94,12.95c5.11,0,8.46-3.41,9.09-8.24h2.61c-.74,6.36-4.94,10.68-11.7,10.68-8.46,0-12.78-6.53-12.78-15.39Z"/>
      <path class="cls-1" d="M1047.85,335.46v-1.02h-.17c-1.65,2.33-4.6,5.28-10.62,5.28-5.4,0-9.37-2.78-9.37-8.18,0-6.99,5.45-8.41,11.59-9.03,6.93-.68,8.52-1.02,8.52-3.75v-1.02c0-4.43-2.61-6.36-7.38-6.36-5.51,0-8.46,2.27-8.86,6.59h-2.84c.57-5.68,4.37-8.97,11.7-8.97,6.53,0,10.17,2.9,10.17,8.92v17.27c0,1.59.85,2.04,1.87,2.04.4,0,.85-.11,1.36-.28h.17v2.04c-.45.23-1.14.45-2.27.45-2.27,0-3.86-1.25-3.86-3.98ZM1047.79,328.54v-5.45c-2.04,1.02-5.17,1.42-8.18,1.76-5.17.57-9.09,1.25-9.09,6.82,0,4.15,3.07,5.74,6.82,5.74,6.65,0,10.45-4.43,10.45-8.86Z"/>
      <path class="cls-1" d="M1061.42,309.62h2.78v4.6h.11c1.93-3.01,4.54-5.17,9.09-5.17,3.64,0,6.82,1.82,7.95,5.4h.17c1.93-3.35,5.17-5.4,9.71-5.4,4.88,0,8.86,3.12,8.86,8.97v20.96h-2.78v-20.67c0-4.83-2.67-6.87-6.7-6.87-4.6,0-8.46,2.95-8.46,8.58v18.97h-2.78v-20.67c0-4.83-2.78-6.87-6.48-6.87-4.6,0-8.69,3.69-8.69,8.58v18.97h-2.78v-29.36Z"/>
      <path class="cls-1" d="M1108.39,324.33c0-8.86,4.94-15.34,13.18-15.34s13.18,6.47,13.18,15.34-4.88,15.39-13.18,15.39-13.18-6.53-13.18-15.39ZM1131.91,324.33c0-7.16-3.58-13.01-10.34-13.01s-10.34,5.85-10.34,13.01,3.58,13.01,10.34,13.01,10.34-5.85,10.34-13.01Z"/>
      <path class="cls-1" d="M1141.39,330.13h2.84c.4,4.83,3.86,7.21,8.75,7.21s7.9-2.44,7.9-6.3c0-3.18-1.53-4.43-8.01-5.96-6.02-1.42-10.51-3.01-10.51-8.24,0-4.88,4.43-7.84,10-7.84,6.76,0,9.77,3.58,10.45,8.35h-2.73c-.4-3.75-3.29-5.91-7.72-5.91-4.77,0-7.21,2.27-7.21,5.34,0,3.41,2.73,4.37,8.75,5.79,5.91,1.36,9.77,2.95,9.77,8.52,0,4.77-3.81,8.63-10.68,8.63-7.67,0-11.3-4.54-11.59-9.6Z"/>
      <path class="cls-1" d="M1183.64,330.13h2.84c.4,4.83,3.86,7.21,8.75,7.21s7.89-2.44,7.89-6.3c0-3.18-1.53-4.43-8.01-5.96-6.02-1.42-10.51-3.01-10.51-8.24,0-4.88,4.43-7.84,10-7.84,6.76,0,9.77,3.58,10.45,8.35h-2.73c-.4-3.75-3.29-5.91-7.72-5.91-4.77,0-7.21,2.27-7.21,5.34,0,3.41,2.73,4.37,8.75,5.79,5.91,1.36,9.77,2.95,9.77,8.52,0,4.77-3.81,8.63-10.68,8.63-7.67,0-11.3-4.54-11.59-9.6Z"/>
      <path class="cls-1" d="M1212.95,324.33c0-8.86,4.94-15.34,13.18-15.34s13.18,6.47,13.18,15.34-4.88,15.39-13.18,15.39-13.18-6.53-13.18-15.39ZM1236.46,324.33c0-7.16-3.58-13.01-10.34-13.01s-10.34,5.85-10.34,13.01,3.58,13.01,10.34,13.01,10.34-5.85,10.34-13.01Z"/>
      <path class="cls-1" d="M1247.99,298.38h2.78v40.61h-2.78v-40.61Z"/>
      <path class="cls-1" d="M1279.63,338.99v-4.49h-.11c-1.93,2.84-4.49,5.17-9.43,5.17-5.4,0-9.43-3.24-9.43-9.09v-20.96h2.78v20.67c0,4.83,2.78,6.99,7.16,6.99,5.17,0,9.03-3.92,9.03-9.09v-18.57h2.78v29.36h-2.78Z"/>
      <path class="cls-1" d="M1296.43,348.19l.74-1.42c1.25.45,2.39.74,3.81.74,2.1,0,3.24-.85,3.24-2.1s-.97-1.65-2.44-1.65c-.97,0-1.65.23-2.21.4l-.74-1.25,3.35-3.29c-7.5-.68-11.25-6.93-11.25-15.28,0-8.86,4.43-15.34,12.84-15.34,6.13,0,10.39,3.18,11.3,9.09h-2.73c-.97-4.66-3.98-6.7-8.58-6.7-7.1,0-10,5.91-10,12.95s2.95,12.95,9.94,12.95c5.11,0,8.46-3.41,9.09-8.24h2.61c-.74,6.02-4.54,10.22-10.68,10.62l-2.33,2.16v.11c2.61-.11,4.54,1.14,4.54,3.47,0,2.61-2.27,4.03-5.45,4.03-2.21,0-3.86-.57-5.06-1.25Z"/>
      <path class="cls-1" d="M1321.99,324.33c0-8.86,4.94-15.34,13.18-15.34s13.18,6.47,13.18,15.34-4.88,15.39-13.18,15.39-13.18-6.53-13.18-15.39ZM1345.51,324.33c0-7.16-3.58-13.01-10.34-13.01s-10.34,5.85-10.34,13.01,3.58,13.01,10.34,13.01,10.34-5.85,10.34-13.01ZM1331.87,302.47c-.79,0-1.65.85-1.76,2.33h-2.39c.28-3.24,1.93-4.77,4.15-4.77,2.39,0,4.89,2.44,6.53,2.44.97,0,1.76-.85,1.87-2.33h2.38c-.23,3.12-1.93,4.77-4.15,4.77-2.33,0-5-2.44-6.65-2.44Z"/>
      <path class="cls-1" d="M1358.28,324.62c.06,7.04,3.24,12.67,10.45,12.67,5.28,0,7.72-3.07,8.92-7.04h2.67c-1.19,5.45-5.06,9.49-11.59,9.49-8.63,0-13.29-6.36-13.29-15.39s5.05-15.34,13.06-15.34c3.18,0,5.79,1.02,7.72,2.84,3.24,3.01,4.32,7.21,4.26,12.78h-22.21ZM1368.51,311.38c-6.36,0-9.6,4.77-10.17,10.96h19.31c-.17-5.79-2.67-10.96-9.14-10.96Z"/>
      <path class="cls-1" d="M1387.13,330.13h2.84c.4,4.83,3.86,7.21,8.75,7.21s7.89-2.44,7.89-6.3c0-3.18-1.53-4.43-8.01-5.96-6.02-1.42-10.51-3.01-10.51-8.24,0-4.88,4.43-7.84,10-7.84,6.76,0,9.77,3.58,10.45,8.35h-2.73c-.4-3.75-3.29-5.91-7.72-5.91-4.77,0-7.21,2.27-7.21,5.34,0,3.41,2.73,4.37,8.75,5.79,5.91,1.36,9.77,2.95,9.77,8.52,0,4.77-3.81,8.63-10.68,8.63-7.67,0-11.3-4.54-11.59-9.6Z"/>
    </g>
  </g>
</svg>