<?xml version="1.0" encoding="UTF-8"?>
<svg id="Camada_2" data-name="Camada 2" xmlns="http://www.w3.org/2000/svg" viewBox="0 0 1409.55 381">
  <defs>
    <style>
      .cls-1 {
        fill: #00c2ff;
      }

      .cls-2 {
        fill: #ff6b00;
      }

      .cls-3 {
        fill: #1a1a1a;
      }
    </style>
  </defs>
  <g id="Layer_1" data-name="Layer 1">
    <g>
      <g>
        <path class="cls-2" d="M115.37,244.55c1.43.69,3.03,1.08,4.72,1.08,1.3,0,2.55-.24,3.71-.66,15.5,13.7,34.13,23.11,54.47,27.38.4.08.81.13,1.2.13,2.69,0,5.11-1.88,5.69-4.62.66-3.15-1.35-6.23-4.5-6.89-18.59-3.91-35.61-12.57-49.71-25.2.03-.35.05-.7.05-1.05,0-1.59-.35-3.1-.96-4.47l11.83-11.53c12.35,11.91,28.18,20.29,45.91,23.38v-11.09c-33.81-6.78-59.29-35.66-61.97-69.98-.16-1.99-.25-3.99-.25-6v-.05c0-2.68-2.12-4.86-4.8-4.86H19.18c-1.83-2.95-5.08-4.91-8.81-4.91-5.73,0-10.37,4.64-10.37,10.37s4.64,10.37,10.37,10.37c3.72,0,6.98-1.97,8.81-4.91h95.68c1.38,20.1,9.6,38.6,22.47,52.97l-11.65,11.36c-1.64-.98-3.55-1.55-5.59-1.55-6.03,0-10.92,4.89-10.92,10.92,0,1.95.52,3.77,1.41,5.36l-13.99,13.64c-18.03-19.43-30.28-43.07-35.65-68.83,1.46-1.3,2.38-3.19,2.38-5.29,0-3.92-3.18-7.1-7.1-7.1s-7.1,3.18-7.1,7.1c0,3.35,2.33,6.16,5.46,6.9,5.66,26.88,18.47,51.54,37.31,71.8l-18.89,18.41c-.81-.32-1.68-.5-2.6-.5-3.92,0-7.1,3.18-7.1,7.1s3.18,7.1,7.1,7.1,7.1-3.18,7.1-7.1c0-.57-.07-1.12-.2-1.64l38.06-37.1ZM114.73,151.01c0-.11,0-.22,0-.32,0-.07,0-.13.01-.2,0,.17-.01.35-.02.53Z"/>
        <path class="cls-2" d="M182.86,294.76c-2.44,0-4.59,1.23-5.87,3.11-22.94-4.17-44.62-13.84-63.12-28.26-1.43-1.11-3.48-.86-4.6.57-1.11,1.43-.86,3.48.57,4.6,19.44,15.15,42.26,25.29,66.39,29.61,1.02,2.67,3.6,4.57,6.62,4.57,3.92,0,7.1-3.18,7.1-7.1s-3.18-7.1-7.1-7.1Z"/>
      </g>
      <g>
        <path class="cls-1" d="M306.95,256.44c-20.75,21.25-47.87,35.76-76.87,41.25-1.29-1.78-3.38-2.94-5.74-2.94-3.92,0-7.1,3.18-7.1,7.1s3.18,7.1,7.1,7.1c3.1,0,5.73-1.99,6.7-4.77,30.41-5.7,58.86-20.89,80.6-43.16,1.26-1.29,1.24-3.37-.06-4.63-1.29-1.26-3.37-1.24-4.63.06Z"/>
        <path class="cls-1" d="M350.7,171.05c-1.79-.23-3.44,1.03-3.67,2.83-2.93,22.56-11.23,44.24-24.08,63.04-.12,0-.24-.02-.36-.02-3.92,0-7.1,3.18-7.1,7.1s3.18,7.1,7.1,7.1,7.1-3.18,7.1-7.1c0-1.38-.4-2.66-1.08-3.75,13.29-19.56,21.88-42.09,24.92-65.52.23-1.79-1.03-3.44-2.83-3.67Z"/>
        <path class="cls-1" d="M268.56,258.73c6.03,0,10.92-4.89,10.92-10.92s-4.89-10.92-10.92-10.92-10.92,4.89-10.92,10.92c0,.23.02.46.03.68-14.96,8.78-31.69,13.77-49.16,14.63v-19.87c21.98-1.34,41.93-10.71,56.76-25.36l25.42,24.08c-.19.64-.3,1.32-.3,2.02,0,3.92,3.18,7.1,7.1,7.1s7.1-3.18,7.1-7.1-3.18-7.1-7.1-7.1c-.79,0-1.54.13-2.25.37l-25.49-24.14c10.79-12.37,18.19-27.81,20.74-45h-11.04c-5.97,35.21-35.35,61.72-70.94,64.2v-30.1c2.64-1.88,4.37-4.96,4.37-8.45,0-5.73-4.64-10.37-10.37-10.37s-10.37,4.64-10.37,10.37c0,3.95,2.21,7.38,5.46,9.13v66.54c0,3,2.41,5.47,5.4,5.48h.05c1.83,0,3.64-.05,5.46-.13,19.94-.89,39.04-6.64,56.03-16.83,1.24.49,2.59.77,4.01.77Z"/>
        <path class="cls-1" d="M291.89,226.83c1.03.75,2.23,1.12,3.42,1.12,1.8,0,3.57-.83,4.71-2.39,12.41-17.04,19.95-36.69,22.19-57.43h-11.71c-2.19,18.26-8.94,35.55-19.89,50.58-1.89,2.6-1.32,6.24,1.28,8.13Z"/>
      </g>
      <g>
        <path class="cls-2" d="M351.02,121.28c-4.18-18.48-11.72-35.8-22.47-51.59-1.02-1.49-3.05-1.88-4.55-.86-1.49,1.02-1.88,3.06-.86,4.55,10.41,15.28,17.67,32.07,21.64,49.98-1.23,1.28-1.99,3.01-1.99,4.92,0,3.92,3.18,7.1,7.1,7.1s7.1-3.18,7.1-7.1c0-3.53-2.58-6.45-5.96-7Z"/>
        <path class="cls-2" d="M349.89,145.19c-3.72,0-6.98,1.97-8.81,4.91h-18.23c-.74-18.25-5.6-35.98-14.22-51.95.89-1.58,1.41-3.41,1.41-5.36,0-6.03-4.89-10.92-10.92-10.92s-10.92,4.89-10.92,10.92,4.49,10.5,10.17,10.88c7.71,14.28,12.08,30.12,12.81,46.43h-19.85c-1.16-21.01-9.67-40.08-23.01-54.68l54.5-53.13c.62.18,1.28.28,1.95.28,3.92,0,7.1-3.18,7.1-7.1s-3.18-7.1-7.1-7.1-7.1,3.18-7.1,7.1c0,.81.14,1.58.39,2.3l-54.35,52.99c-15.85-14.97-37.19-24.18-60.66-24.18s-45.65,9.44-61.64,24.95l-11.7-11.08c.82-1.53,1.28-3.28,1.28-5.13,0-6.03-4.89-10.92-10.92-10.92s-10.92,4.89-10.92,10.92,4.89,10.92,10.92,10.92c1.78,0,3.46-.44,4.95-1.2l11.86,11.24c-10.85,12.21-18.38,27.49-21.12,44.55h11.08c6.71-36.47,38.51-63.32,76.2-63.32,41.09,0,74.79,32.14,77.34,72.6.1,1.63.17,3.26.17,4.91,0,2-.09,4.02-.24,6h60.76c1.83,2.95,5.08,4.91,8.81,4.91,5.73,0,10.37-4.64,10.37-10.37s-4.64-10.37-10.37-10.37Z"/>
        <path class="cls-2" d="M111.41,97.36c1.71-2.72.9-6.31-1.82-8.03-2.72-1.71-6.31-.9-8.03,1.82-9.52,15.09-15.46,32.04-17.55,49.68h11.73c2.02-15.43,7.33-30.25,15.67-43.47Z"/>
      </g>
      <g>
        <path class="cls-1" d="M187.3,7.34c-.23-1.79-1.87-3.07-3.66-2.83-26.03,3.32-50.64,13.36-71.61,29.11-1.01-.55-2.17-.87-3.41-.87-3.92,0-7.1,3.18-7.1,7.1s3.18,7.1,7.1,7.1,7.1-3.18,7.1-7.1c0-.26-.02-.52-.04-.78,20.13-15.19,43.78-24.87,68.79-28.07,1.79-.23,3.06-1.87,2.83-3.66Z"/>
        <path class="cls-1" d="M304.47,42.14c-19.91-17.9-43.97-30.1-69.95-35.58-.74-3.14-3.54-5.47-6.9-5.47-3.92,0-7.1,3.18-7.1,7.1s3.18,7.1,7.1,7.1c2.1,0,3.98-.92,5.28-2.37,24.96,5.21,48.08,16.91,67.19,34.1.63.56,1.41.84,2.19.84.9,0,1.79-.37,2.44-1.09,1.21-1.34,1.1-3.42-.25-4.63Z"/>
        <path class="cls-1" d="M268.56,50.22c-1.82,0-3.53.45-5.04,1.24-16.74-9.8-35.51-15.33-55.01-16.2v-14.89c3.26-1.89,5.46-5.41,5.46-9.44,0-6.03-4.89-10.92-10.92-10.92s-10.92,4.89-10.92,10.92c0,4.04,2.2,7.56,5.46,9.44v14.89c-23.44,1.04-45.74,8.8-64.8,22.6-2.6,1.89-3.18,5.52-1.3,8.13,1.14,1.57,2.92,2.41,4.72,2.41,1.18,0,2.38-.36,3.41-1.11,18.53-13.42,40.47-20.52,63.43-20.52,19.37,0,38.08,5.08,54.6,14.76.2,5.85,5,10.54,10.9,10.54s10.92-4.89,10.92-10.92-4.89-10.92-10.92-10.92Z"/>
        <path class="cls-1" d="M84.61,57.86c-3.92,0-7.1,3.18-7.1,7.1,0,1.27.33,2.45.92,3.48-15.06,21.59-24.05,46.28-26.44,72.39h6.59c2.38-24.82,11-48.29,25.35-68.81.22.02.45.03.68.03,3.92,0,7.1-3.18,7.1-7.1s-3.18-7.1-7.1-7.1Z"/>
      </g>
    </g>
    <g>
      <path class="cls-3" d="M152.84,332.96h103.71c3.01,0,5.46-2.44,5.46-5.46s-2.44-5.46-5.46-5.46h-103.71c-3.01,0-5.46,2.44-5.46,5.46s2.44,5.46,5.46,5.46Z"/>
      <path class="cls-3" d="M256.55,340.61h-103.71c-3.01,0-5.46,2.44-5.46,5.46s2.44,5.46,5.46,5.46h103.71c3.01,0,5.46-2.44,5.46-5.46s-2.44-5.46-5.46-5.46Z"/>
      <path class="cls-3" d="M230.35,358.07h-51.31c-3.01,0-5.46,2.44-5.46,5.46s2.44,5.46,5.46,5.46h5.84c3.74,7.13,11.2,12.01,19.81,12.01s16.08-4.87,19.81-12.01h5.84c3.01,0,5.46-2.44,5.46-5.46s-2.44-5.46-5.46-5.46Z"/>
    </g>
    <g>
      <path class="cls-3" d="M413.62,228.58h-26.11l44.82-66.8,12.84,18.06-31.55,48.74ZM487.38,228.58l-96.17-139.47h28.29l30.9,48.08,30.68-48.08h28.29l-45.47,66.14,49.17,73.32h-25.67Z"/>
      <path class="cls-3" d="M561.14,228.58v-42.21l-52.65-97.26h25.24l52.44,100.3v39.16h-25.02ZM588.99,178.54l-10.88-21.1,38.08-68.32h25.02l-52.22,89.42Z"/>
      <path class="cls-3" d="M643.38,228.58v-22.85l94.43-116.62h8.92v22.85l-81.16,97.69h83.98v18.93h-106.18ZM712.35,109.13h-68.97v-20.02h84.86l-15.88,20.02Z"/>
      <path class="cls-3" d="M814.83,158.96c0-36.99,11.97-69.41,60.05-71.15v19.8c-29.37,1.96-35.68,24.15-35.68,51.35s6.31,49.61,35.68,51.35v20.02c-48.3-1.96-60.05-34.38-60.05-71.37ZM917.31,142.42c-1.31-18.71-10.66-33.72-35.03-34.81v-19.8c43.3,1.09,59.62,26.33,59.62,54.61h-24.59ZM882.28,230.33v-20.02c24.8-1.09,33.72-15.45,35.03-35.25h24.59c0,29.81-16.1,54.18-59.62,55.26Z"/>
      <path class="cls-3" d="M947.34,158.96c0-36.99,12.4-69.62,62.23-71.15v19.8c-30.9,1.96-37.86,23.93-37.86,51.35s6.96,49.61,37.86,51.35v20.02c-50.04-1.74-62.23-34.38-62.23-71.37ZM1016.97,230.33v-20.02c32.42-1.31,38.95-23.5,38.95-51.13s-6.53-50.26-38.95-51.57v-19.8c51.13,1.31,63.1,33.94,63.1,71.37s-11.97,69.62-63.1,71.15Z"/>
      <path class="cls-3" d="M1098.99,228.8V89.34h23.72v139.47h-23.72ZM1149.91,228.8h-19.8v-19.15h15.45c30.68,0,46.78-14.14,46.78-51.78-.22-37.86-15.01-48.95-45.47-48.95h-16.75v-19.58h21.98c41.77,0,63.53,24.15,63.53,68.75s-23.5,70.71-65.71,70.71Z"/>
      <path class="cls-3" d="M1257.83,167.23v61.36h-23.72V89.34h23.72v58.53h66.36v19.36h-66.36ZM1265.22,109.13v-19.8h65.71v19.8h-65.71ZM1265.22,228.58v-19.8h65.71v19.8h-65.71Z"/>
    </g>
    <g>
      <path class="cls-3" d="M308.89,322.99c0-8.86,4.43-15.34,12.84-15.34,6.13,0,10.39,3.18,11.3,9.09h-2.73c-.97-4.66-3.98-6.7-8.58-6.7-7.1,0-10,5.91-10,12.95s2.95,12.95,9.94,12.95c5.11,0,8.46-3.41,9.09-8.24h2.61c-.74,6.36-4.94,10.68-11.7,10.68-8.46,0-12.78-6.53-12.78-15.39Z"/>
      <path class="cls-3" d="M339.96,322.99c0-8.86,4.94-15.34,13.18-15.34s13.18,6.47,13.18,15.34-4.88,15.39-13.18,15.39-13.18-6.53-13.18-15.39ZM363.47,322.99c0-7.16-3.58-13.01-10.34-13.01s-10.34,5.85-10.34,13.01,3.58,13.01,10.34,13.01,10.34-5.85,10.34-13.01Z"/>
      <path class="cls-3" d="M373.41,322.99c0-8.86,4.94-15.34,13.18-15.34s13.18,6.47,13.18,15.34-4.88,15.39-13.18,15.39-13.18-6.53-13.18-15.39ZM396.93,322.99c0-7.16-3.58-13.01-10.34-13.01s-10.34,5.85-10.34,13.01,3.58,13.01,10.34,13.01,10.34-5.85,10.34-13.01Z"/>
      <path class="cls-3" d="M411.07,314.07h.11c1.02-2.04,2.39-3.64,4.15-4.66,1.76-1.02,3.24-1.31,5.4-1.31v2.78c-1.65-.06-2.95.17-4.15.68-3.12,1.42-5.51,4.77-5.51,9.09v16.98h-2.78v-29.36h2.78v5.79Z"/>
      <path class="cls-3" d="M425.6,323.05c0-9.77,5.51-15.39,12.33-15.39,4.71,0,8.07,2.21,9.94,5.96h.11v-16.59h2.78v40.61h-2.78v-4.88h-.11c-2.16,3.64-5.28,5.62-9.88,5.62-7.84,0-12.38-6.59-12.38-15.34ZM448.27,323.11c0-7.44-3.58-13.06-10.11-13.06-6.02,0-9.71,5.23-9.71,13.06,0,7.04,3.07,12.95,9.66,12.95s10.17-5.17,10.17-12.95Z"/>
      <path class="cls-3" d="M462.12,323.28c.06,7.04,3.24,12.67,10.45,12.67,5.28,0,7.72-3.07,8.92-7.04h2.67c-1.19,5.45-5.05,9.49-11.59,9.49-8.63,0-13.29-6.36-13.29-15.39s5.06-15.34,13.06-15.34c3.18,0,5.79,1.02,7.72,2.84,3.24,3.01,4.32,7.21,4.26,12.78h-22.21ZM472.35,310.04c-6.36,0-9.6,4.77-10.17,10.96h19.31c-.17-5.79-2.67-10.96-9.14-10.96Z"/>
      <path class="cls-3" d="M495.63,313.22h.11c1.93-3.12,5.23-5.51,10.22-5.51s8.97,3.12,8.97,8.97v20.96h-2.78v-20.67c0-4.83-2.61-6.87-6.7-6.87-5.23,0-9.83,3.69-9.83,8.58v18.97h-2.78v-29.36h2.78v4.94Z"/>
      <path class="cls-3" d="M543.28,334.12v-1.02h-.17c-1.65,2.33-4.6,5.28-10.62,5.28-5.4,0-9.37-2.78-9.37-8.18,0-6.99,5.45-8.41,11.59-9.03,6.93-.68,8.52-1.02,8.52-3.75v-1.02c0-4.43-2.61-6.36-7.38-6.36-5.51,0-8.46,2.27-8.86,6.59h-2.84c.57-5.68,4.37-8.97,11.7-8.97,6.53,0,10.17,2.9,10.17,8.92v17.27c0,1.59.85,2.04,1.87,2.04.4,0,.85-.11,1.36-.28h.17v2.04c-.45.23-1.14.45-2.27.45-2.27,0-3.86-1.25-3.86-3.98ZM543.22,327.2v-5.45c-2.04,1.02-5.17,1.42-8.18,1.76-5.17.57-9.09,1.25-9.09,6.82,0,4.15,3.07,5.74,6.82,5.74,6.65,0,10.45-4.43,10.45-8.86Z"/>
      <path class="cls-3" d="M556.85,308.28h2.78v4.6h.11c1.93-3.01,4.54-5.17,9.09-5.17,3.64,0,6.82,1.82,7.95,5.4h.17c1.93-3.35,5.17-5.4,9.71-5.4,4.88,0,8.86,3.12,8.86,8.97v20.96h-2.78v-20.67c0-4.83-2.67-6.87-6.7-6.87-4.6,0-8.46,2.95-8.46,8.58v18.97h-2.78v-20.67c0-4.83-2.78-6.87-6.48-6.87-4.6,0-8.69,3.69-8.69,8.58v18.97h-2.78v-29.36Z"/>
      <path class="cls-3" d="M603.82,322.99c0-8.86,4.94-15.34,13.18-15.34s13.18,6.47,13.18,15.34-4.88,15.39-13.18,15.39-13.18-6.53-13.18-15.39ZM627.34,322.99c0-7.16-3.58-13.01-10.34-13.01s-10.34,5.85-10.34,13.01,3.58,13.01,10.34,13.01,10.34-5.85,10.34-13.01Z"/>
      <path class="cls-3" d="M636.82,328.79h2.84c.4,4.83,3.86,7.21,8.75,7.21s7.89-2.44,7.89-6.3c0-3.18-1.53-4.43-8.01-5.96-6.02-1.42-10.51-3.01-10.51-8.24,0-4.88,4.43-7.84,10-7.84,6.76,0,9.77,3.58,10.45,8.35h-2.73c-.4-3.75-3.29-5.91-7.72-5.91-4.77,0-7.21,2.27-7.21,5.34,0,3.41,2.73,4.37,8.75,5.79,5.91,1.36,9.77,2.95,9.77,8.52,0,4.77-3.81,8.63-10.68,8.63-7.67,0-11.3-4.54-11.59-9.6Z"/>
      <path class="cls-3" d="M681.12,297.04h2.78v4.54h-2.78v-4.54ZM681.12,308.28h2.78v29.36h-2.78v-29.36Z"/>
      <path class="cls-3" d="M692.59,323.05c0-9.77,5.51-15.39,12.33-15.39,4.71,0,8.07,2.21,9.94,5.96h.11v-16.59h2.78v40.61h-2.78v-4.88h-.11c-2.16,3.64-5.28,5.62-9.88,5.62-7.84,0-12.38-6.59-12.38-15.34ZM715.25,323.11c0-7.44-3.58-13.06-10.11-13.06-6.02,0-9.71,5.23-9.71,13.06,0,7.04,3.07,12.95,9.66,12.95s10.17-5.17,10.17-12.95Z"/>
      <path class="cls-3" d="M729.11,323.28c.06,7.04,3.24,12.67,10.45,12.67,5.28,0,7.72-3.07,8.92-7.04h2.67c-1.19,5.45-5.05,9.49-11.59,9.49-8.63,0-13.29-6.36-13.29-15.39s5.06-15.34,13.06-15.34c3.18,0,5.79,1.02,7.72,2.84,3.24,3.01,4.32,7.21,4.26,12.78h-22.21ZM739.33,310.04c-6.36,0-9.6,4.77-10.17,10.96h19.31c-.17-5.79-2.67-10.96-9.14-10.96Z"/>
      <path class="cls-3" d="M760,297.04h2.78v4.54h-2.78v-4.54ZM760,308.28h2.78v29.36h-2.78v-29.36Z"/>
      <path class="cls-3" d="M791.52,334.12v-1.02h-.17c-1.65,2.33-4.6,5.28-10.62,5.28-5.4,0-9.37-2.78-9.37-8.18,0-6.99,5.45-8.41,11.59-9.03,6.93-.68,8.52-1.02,8.52-3.75v-1.02c0-4.43-2.61-6.36-7.38-6.36-5.51,0-8.46,2.27-8.86,6.59h-2.84c.57-5.68,4.37-8.97,11.7-8.97,6.53,0,10.17,2.9,10.17,8.92v17.27c0,1.59.85,2.04,1.87,2.04.4,0,.85-.11,1.36-.28h.17v2.04c-.45.23-1.14.45-2.27.45-2.27,0-3.86-1.25-3.86-3.98ZM791.47,327.2v-5.45c-2.04,1.02-5.17,1.42-8.18,1.76-5.17.57-9.09,1.25-9.09,6.82,0,4.15,3.07,5.74,6.82,5.74,6.65,0,10.45-4.43,10.45-8.86Z"/>
      <path class="cls-3" d="M802.94,328.79h2.84c.4,4.83,3.86,7.21,8.75,7.21s7.89-2.44,7.89-6.3c0-3.18-1.53-4.43-8.01-5.96-6.02-1.42-10.51-3.01-10.51-8.24,0-4.88,4.43-7.84,10-7.84,6.76,0,9.77,3.58,10.45,8.35h-2.73c-.4-3.75-3.29-5.91-7.72-5.91-4.77,0-7.21,2.27-7.21,5.34,0,3.41,2.73,4.37,8.75,5.79,5.91,1.36,9.77,2.95,9.77,8.52,0,4.77-3.81,8.63-10.68,8.63-7.67,0-11.3-4.54-11.59-9.6Z"/>
      <path class="cls-3" d="M833.1,341.34c.97-.34,1.53-1.08,1.53-3.35v-.34h-1.48v-4.49h3.47v4.66c0,3.52-1.31,4.77-3.52,5.17v-1.65Z"/>
      <path class="cls-3" d="M858.03,322.99c0-8.86,4.43-15.34,12.84-15.34,6.13,0,10.39,3.18,11.3,9.09h-2.73c-.97-4.66-3.98-6.7-8.58-6.7-7.1,0-10,5.91-10,12.95s2.95,12.95,9.94,12.95c5.11,0,8.46-3.41,9.09-8.24h2.61c-.74,6.36-4.94,10.68-11.7,10.68-8.46,0-12.78-6.53-12.78-15.39Z"/>
      <path class="cls-3" d="M889.09,322.99c0-8.86,4.94-15.34,13.18-15.34s13.18,6.47,13.18,15.34-4.88,15.39-13.18,15.39-13.18-6.53-13.18-15.39ZM912.61,322.99c0-7.16-3.58-13.01-10.34-13.01s-10.34,5.85-10.34,13.01,3.58,13.01,10.34,13.01,10.34-5.85,10.34-13.01Z"/>
      <path class="cls-3" d="M922.54,323.05c0-9.77,5.51-15.39,12.33-15.39,4.71,0,8.07,2.21,9.94,5.96h.11v-16.59h2.78v40.61h-2.78v-4.88h-.11c-2.16,3.64-5.28,5.62-9.88,5.62-7.84,0-12.38-6.59-12.38-15.34ZM945.21,323.11c0-7.44-3.58-13.06-10.11-13.06-6.02,0-9.71,5.23-9.71,13.06,0,7.04,3.07,12.95,9.66,12.95s10.17-5.17,10.17-12.95Z"/>
      <path class="cls-3" d="M957.81,297.04h2.78v4.54h-2.78v-4.54ZM957.81,308.28h2.78v29.36h-2.78v-29.36Z"/>
      <path class="cls-3" d="M968.55,308.28h4.37v-5.57c0-3.92,2.1-5.91,6.3-5.91h1.76v2.44h-1.59c-2.9,0-3.69,1.36-3.69,3.52v5.51h5.45v2.33h-5.45v27.04h-2.78v-27.04h-4.37v-2.33ZM984.85,297.04h2.78v4.54h-2.78v-4.54ZM984.85,308.28h2.78v29.36h-2.78v-29.36Z"/>
      <path class="cls-3" d="M996.32,322.99c0-8.86,4.43-15.34,12.84-15.34,6.13,0,10.39,3.18,11.3,9.09h-2.73c-.97-4.66-3.98-6.7-8.58-6.7-7.1,0-10,5.91-10,12.95s2.95,12.95,9.94,12.95c5.11,0,8.46-3.41,9.09-8.24h2.61c-.74,6.36-4.94,10.68-11.7,10.68-8.46,0-12.78-6.53-12.78-15.39Z"/>
      <path class="cls-3" d="M1048,334.12v-1.02h-.17c-1.65,2.33-4.6,5.28-10.62,5.28-5.4,0-9.37-2.78-9.37-8.18,0-6.99,5.45-8.41,11.59-9.03,6.93-.68,8.52-1.02,8.52-3.75v-1.02c0-4.43-2.61-6.36-7.38-6.36-5.51,0-8.46,2.27-8.86,6.59h-2.84c.57-5.68,4.37-8.97,11.7-8.97,6.53,0,10.17,2.9,10.17,8.92v17.27c0,1.59.85,2.04,1.87,2.04.4,0,.85-.11,1.36-.28h.17v2.04c-.45.23-1.14.45-2.27.45-2.27,0-3.86-1.25-3.86-3.98ZM1047.94,327.2v-5.45c-2.04,1.02-5.17,1.42-8.18,1.76-5.17.57-9.09,1.25-9.09,6.82,0,4.15,3.07,5.74,6.82,5.74,6.65,0,10.45-4.43,10.45-8.86Z"/>
      <path class="cls-3" d="M1061.57,308.28h2.78v4.6h.11c1.93-3.01,4.54-5.17,9.09-5.17,3.64,0,6.82,1.82,7.95,5.4h.17c1.93-3.35,5.17-5.4,9.71-5.4,4.88,0,8.86,3.12,8.86,8.97v20.96h-2.78v-20.67c0-4.83-2.67-6.87-6.7-6.87-4.6,0-8.46,2.95-8.46,8.58v18.97h-2.78v-20.67c0-4.83-2.78-6.87-6.48-6.87-4.6,0-8.69,3.69-8.69,8.58v18.97h-2.78v-29.36Z"/>
      <path class="cls-3" d="M1108.54,322.99c0-8.86,4.94-15.34,13.18-15.34s13.18,6.47,13.18,15.34-4.88,15.39-13.18,15.39-13.18-6.53-13.18-15.39ZM1132.06,322.99c0-7.16-3.58-13.01-10.34-13.01s-10.34,5.85-10.34,13.01,3.58,13.01,10.34,13.01,10.34-5.85,10.34-13.01Z"/>
      <path class="cls-3" d="M1141.54,328.79h2.84c.4,4.83,3.86,7.21,8.75,7.21s7.9-2.44,7.9-6.3c0-3.18-1.53-4.43-8.01-5.96-6.02-1.42-10.51-3.01-10.51-8.24,0-4.88,4.43-7.84,10-7.84,6.76,0,9.77,3.58,10.45,8.35h-2.73c-.4-3.75-3.29-5.91-7.72-5.91-4.77,0-7.21,2.27-7.21,5.34,0,3.41,2.73,4.37,8.75,5.79,5.91,1.36,9.77,2.95,9.77,8.52,0,4.77-3.81,8.63-10.68,8.63-7.67,0-11.3-4.54-11.59-9.6Z"/>
      <path class="cls-3" d="M1183.79,328.79h2.84c.4,4.83,3.86,7.21,8.75,7.21s7.89-2.44,7.89-6.3c0-3.18-1.53-4.43-8.01-5.96-6.02-1.42-10.51-3.01-10.51-8.24,0-4.88,4.43-7.84,10-7.84,6.76,0,9.77,3.58,10.45,8.35h-2.73c-.4-3.75-3.29-5.91-7.72-5.91-4.77,0-7.21,2.27-7.21,5.34,0,3.41,2.73,4.37,8.75,5.79,5.91,1.36,9.77,2.95,9.77,8.52,0,4.77-3.81,8.63-10.68,8.63-7.67,0-11.3-4.54-11.59-9.6Z"/>
      <path class="cls-3" d="M1213.1,322.99c0-8.86,4.94-15.34,13.18-15.34s13.18,6.47,13.18,15.34-4.88,15.39-13.18,15.39-13.18-6.53-13.18-15.39ZM1236.61,322.99c0-7.16-3.58-13.01-10.34-13.01s-10.34,5.85-10.34,13.01,3.58,13.01,10.34,13.01,10.34-5.85,10.34-13.01Z"/>
      <path class="cls-3" d="M1248.14,297.04h2.78v40.61h-2.78v-40.61Z"/>
      <path class="cls-3" d="M1279.78,337.65v-4.49h-.11c-1.93,2.84-4.49,5.17-9.43,5.17-5.4,0-9.43-3.24-9.43-9.09v-20.96h2.78v20.67c0,4.83,2.78,6.99,7.16,6.99,5.17,0,9.03-3.92,9.03-9.09v-18.57h2.78v29.36h-2.78Z"/>
      <path class="cls-3" d="M1296.58,346.85l.74-1.42c1.25.45,2.39.74,3.81.74,2.1,0,3.24-.85,3.24-2.1s-.97-1.65-2.44-1.65c-.97,0-1.65.23-2.21.4l-.74-1.25,3.35-3.29c-7.5-.68-11.25-6.93-11.25-15.28,0-8.86,4.43-15.34,12.84-15.34,6.13,0,10.39,3.18,11.3,9.09h-2.73c-.97-4.66-3.98-6.7-8.58-6.7-7.1,0-10,5.91-10,12.95s2.95,12.95,9.94,12.95c5.11,0,8.46-3.41,9.09-8.24h2.61c-.74,6.02-4.54,10.22-10.68,10.62l-2.33,2.16v.11c2.61-.11,4.54,1.14,4.54,3.47,0,2.61-2.27,4.03-5.45,4.03-2.21,0-3.86-.57-5.06-1.25Z"/>
      <path class="cls-3" d="M1322.14,322.99c0-8.86,4.94-15.34,13.18-15.34s13.18,6.47,13.18,15.34-4.88,15.39-13.18,15.39-13.18-6.53-13.18-15.39ZM1345.66,322.99c0-7.16-3.58-13.01-10.34-13.01s-10.34,5.85-10.34,13.01,3.58,13.01,10.34,13.01,10.34-5.85,10.34-13.01ZM1332.02,301.12c-.79,0-1.65.85-1.76,2.33h-2.39c.28-3.24,1.93-4.77,4.15-4.77,2.39,0,4.89,2.44,6.53,2.44.97,0,1.76-.85,1.87-2.33h2.38c-.23,3.12-1.93,4.77-4.15,4.77-2.33,0-5-2.44-6.65-2.44Z"/>
      <path class="cls-3" d="M1358.43,323.28c.06,7.04,3.24,12.67,10.45,12.67,5.28,0,7.72-3.07,8.92-7.04h2.67c-1.19,5.45-5.06,9.49-11.59,9.49-8.63,0-13.29-6.36-13.29-15.39s5.05-15.34,13.06-15.34c3.18,0,5.79,1.02,7.72,2.84,3.24,3.01,4.32,7.21,4.26,12.78h-22.21ZM1368.66,310.04c-6.36,0-9.6,4.77-10.17,10.96h19.31c-.17-5.79-2.67-10.96-9.14-10.96Z"/>
      <path class="cls-3" d="M1387.28,328.79h2.84c.4,4.83,3.86,7.21,8.75,7.21s7.89-2.44,7.89-6.3c0-3.18-1.53-4.43-8.01-5.96-6.02-1.42-10.51-3.01-10.51-8.24,0-4.88,4.43-7.84,10-7.84,6.76,0,9.77,3.58,10.45,8.35h-2.73c-.4-3.75-3.29-5.91-7.72-5.91-4.77,0-7.21,2.27-7.21,5.34,0,3.41,2.73,4.37,8.75,5.79,5.91,1.36,9.77,2.95,9.77,8.52,0,4.77-3.81,8.63-10.68,8.63-7.67,0-11.3-4.54-11.59-9.6Z"/>
    </g>
  </g>
</svg>